<mxfile host="app.diagrams.net" modified="2024-01-22T09:05:10.300Z" agent="Mozilla/5.0 (Windows NT 10.0; Win64; x64) AppleWebKit/537.36 (KHTML, like Gecko) Chrome/120.0.0.0 Safari/537.36" etag="R5VZzzU9-c2QTP1fMi4h" version="22.1.21" type="github">
  <diagram name="Page-1" id="Bj3cQ0W4sJrUu_Hu8OXL">
    <mxGraphModel dx="1434" dy="772" grid="1" gridSize="10" guides="1" tooltips="1" connect="1" arrows="1" fold="1" page="1" pageScale="1" pageWidth="850" pageHeight="1100" math="0" shadow="0">
      <root>
        <mxCell id="0" />
        <mxCell id="1" parent="0" />
        <mxCell id="m0BKGiWKORrvZRDuk88W-35" value="" style="edgeStyle=orthogonalEdgeStyle;rounded=0;orthogonalLoop=1;jettySize=auto;html=1;" edge="1" parent="1" source="m0BKGiWKORrvZRDuk88W-26" target="m0BKGiWKORrvZRDuk88W-27">
          <mxGeometry relative="1" as="geometry" />
        </mxCell>
        <mxCell id="m0BKGiWKORrvZRDuk88W-26" value="" style="rounded=0;whiteSpace=wrap;html=1;" vertex="1" parent="1">
          <mxGeometry x="80" y="360" width="120" height="60" as="geometry" />
        </mxCell>
        <mxCell id="m0BKGiWKORrvZRDuk88W-27" value="" style="rounded=0;whiteSpace=wrap;html=1;" vertex="1" parent="1">
          <mxGeometry x="290" y="360" width="120" height="60" as="geometry" />
        </mxCell>
        <mxCell id="m0BKGiWKORrvZRDuk88W-28" value="" style="rounded=0;whiteSpace=wrap;html=1;" vertex="1" parent="1">
          <mxGeometry x="510" y="220" width="120" height="60" as="geometry" />
        </mxCell>
        <mxCell id="m0BKGiWKORrvZRDuk88W-29" value="" style="rounded=0;whiteSpace=wrap;html=1;" vertex="1" parent="1">
          <mxGeometry x="510" y="360" width="120" height="60" as="geometry" />
        </mxCell>
        <mxCell id="m0BKGiWKORrvZRDuk88W-30" value="" style="rounded=0;whiteSpace=wrap;html=1;" vertex="1" parent="1">
          <mxGeometry x="510" y="490" width="120" height="60" as="geometry" />
        </mxCell>
        <mxCell id="m0BKGiWKORrvZRDuk88W-31" value="User" style="text;html=1;strokeColor=none;fillColor=none;align=center;verticalAlign=middle;whiteSpace=wrap;rounded=0;" vertex="1" parent="1">
          <mxGeometry x="110" y="375" width="60" height="30" as="geometry" />
        </mxCell>
        <mxCell id="m0BKGiWKORrvZRDuk88W-37" value="" style="edgeStyle=orthogonalEdgeStyle;rounded=0;orthogonalLoop=1;jettySize=auto;html=1;" edge="1" parent="1" target="m0BKGiWKORrvZRDuk88W-28">
          <mxGeometry relative="1" as="geometry">
            <mxPoint x="410" y="390" as="sourcePoint" />
            <mxPoint x="430" y="325" as="targetPoint" />
            <Array as="points">
              <mxPoint x="410" y="250" />
            </Array>
          </mxGeometry>
        </mxCell>
        <mxCell id="m0BKGiWKORrvZRDuk88W-38" value="" style="edgeStyle=orthogonalEdgeStyle;rounded=0;orthogonalLoop=1;jettySize=auto;html=1;" edge="1" parent="1" target="m0BKGiWKORrvZRDuk88W-29">
          <mxGeometry relative="1" as="geometry">
            <mxPoint x="410" y="390" as="sourcePoint" />
          </mxGeometry>
        </mxCell>
        <mxCell id="m0BKGiWKORrvZRDuk88W-33" value="Masuk Ke Perpus" style="text;html=1;strokeColor=none;fillColor=none;align=center;verticalAlign=middle;whiteSpace=wrap;rounded=0;" vertex="1" parent="1">
          <mxGeometry x="320" y="375" width="60" height="30" as="geometry" />
        </mxCell>
        <mxCell id="m0BKGiWKORrvZRDuk88W-34" value="Isi Kunjungan" style="text;html=1;strokeColor=none;fillColor=none;align=center;verticalAlign=middle;whiteSpace=wrap;rounded=0;" vertex="1" parent="1">
          <mxGeometry x="540" y="235" width="60" height="30" as="geometry" />
        </mxCell>
        <mxCell id="m0BKGiWKORrvZRDuk88W-39" style="edgeStyle=orthogonalEdgeStyle;rounded=0;orthogonalLoop=1;jettySize=auto;html=1;entryX=0;entryY=0.75;entryDx=0;entryDy=0;" edge="1" parent="1" target="m0BKGiWKORrvZRDuk88W-30">
          <mxGeometry relative="1" as="geometry">
            <mxPoint x="410" y="424" as="sourcePoint" />
            <mxPoint x="409.96000000000004" y="562.98" as="targetPoint" />
            <Array as="points">
              <mxPoint x="410" y="535" />
            </Array>
          </mxGeometry>
        </mxCell>
        <mxCell id="m0BKGiWKORrvZRDuk88W-40" value="Lihat Kunjungan" style="text;html=1;strokeColor=none;fillColor=none;align=center;verticalAlign=middle;whiteSpace=wrap;rounded=0;" vertex="1" parent="1">
          <mxGeometry x="540" y="375" width="60" height="30" as="geometry" />
        </mxCell>
        <mxCell id="m0BKGiWKORrvZRDuk88W-41" value="Isi Buku" style="text;html=1;strokeColor=none;fillColor=none;align=center;verticalAlign=middle;whiteSpace=wrap;rounded=0;" vertex="1" parent="1">
          <mxGeometry x="540" y="505" width="60" height="30" as="geometry" />
        </mxCell>
      </root>
    </mxGraphModel>
  </diagram>
</mxfile>
